# xmcd
#
# Track frame offsets:
#	151
#	7783
#	22506
#	31191
#	46456
#	55453
#	66031
#	77228
#	89593
#	101003
#	116998
#	130753
#	142536
#	156113
#	167246
#
# Disc length: 2377 seconds
#
# Revision: 0
# Processed by: cddbd v1.5.2PL0 Copyright (c) Steve Scherf et al.
# Submitted via: EasyCDDAExtractor 2010.6.0.0
#
DISCID=b609470f
DTITLE=Antonio Aguilar - Colección 30 Super Éxitos CD2
DYEAR=2000
DGENRE=Rancheras
TTITLE0=Tu Ya No Soplas
TTITLE1=El Aburrido
TTITLE2=Flor De Dalia
TTITLE3=El Tren Lento
TTITLE4=Ma Sacaron De Tenampa
TTITLE5=El Rey
TTITLE6=Amor A La Ligera
TTITLE7=La Hormiga Colorada
TTITLE8=El Siete Mares
TTITLE9=Pa'que Me Sirve La Vida
TTITLE10=No Vólvere
TTITLE11=Cuatro Copas
TTITLE12=Palomas Que Andan Volando
TTITLE13=Ruega Por Nosotros
TTITLE14=La Media Vuelta
EXTD=
EXTT0=
EXTT1=
EXTT2=
EXTT3=
EXTT4=
EXTT5=
EXTT6=
EXTT7=
EXTT8=
EXTT9=
EXTT10=
EXTT11=
EXTT12=
EXTT13=
EXTT14=
PLAYORDER=
